Jump_normalized_Motion_pl04
version=1
nRows=14
nColumns=43
inDegrees=yes
endheader
time		pelvis_tilt		pelvis_list		pelvis_rotation		pelvis_tx		pelvis_ty		pelvis_tz		hip_flexion_r		hip_adduction_r		hip_rotation_r		knee_angle_r		ankle_angle_r		subtalar_angle_r		mtp_angle_r		hip_flexion_l		hip_adduction_l		hip_rotation_l		knee_angle_l		ankle_angle_l		subtalar_angle_l		mtp_angle_l		lumbar_extension		lumbar_bending		lumbar_rotation		neck_flexion		neck_lateral_bending		neck_rotation		arm_flex_r		arm_add_r		arm_rot_r		elbow_flex_r		pro_sup_r		wrist_flex_r		wrist_dev_r		hand_finger_flex_r		arm_flex_l		arm_add_l		arm_rot_l		elbow_flex_l		pro_sup_l		wrist_flex_l		wrist_dev_l		hand_finger_flex_l		
2.489167		-0.802635		-33.636407		89.707139		0.006152		1.633823		1.523411		90.364550		-4.969314		11.290937		-136.227105		7.449250		22.634318		31.884250		82.591989		-11.588762		8.387357		-133.569355		31.003985		18.383910		20.396756		-31.852939		-4.289210		-1.416530		41.499268		7.718197		-1.147652		127.676622		-4.256403		30.797553		46.487840		79.720199		-1.413189		-11.759864		-28.410481		131.346381		-2.971612		28.252302		42.102719		92.624058		-12.072019		-6.989660		-16.826849		
2.491768		-0.715486		-33.631650		89.836457		0.005951		1.634435		1.518706		89.916922		-5.011230		11.304262		-136.134924		6.989567		22.606755		31.878242		81.980068		-11.601075		8.377075		-133.392052		30.817674		18.424750		20.482657		-31.444774		-4.181606		-1.427973		41.073085		7.776723		-1.144267		127.585222		-4.167362		30.750672		46.300306		79.892942		-1.351734		-11.839412		-28.433463		131.217193		-2.959237		28.013709		42.000561		92.751923		-12.033908		-7.089347		-16.873371		
2.494369		-0.589823		-33.433180		89.952130		0.005665		1.635468		1.513905		89.198024		-5.046834		11.266592		-135.993566		6.116912		22.518817		31.867164		81.199359		-11.643444		8.367360		-133.250563		30.487846		18.473216		20.635773		-31.235588		-4.064110		-1.442621		40.082691		7.868932		-1.078051		127.463520		-4.025535		30.567647		45.982057		80.263061		-1.292055		-12.059356		-28.467893		130.945381		-2.888368		27.491203		41.946501		93.005572		-12.004829		-7.415542		-16.932723		
2.496970		-0.244766		-32.878498		89.864124		0.006042		1.636807		1.508641		88.096701		-4.653934		11.017873		-135.811760		5.727273		22.136476		31.813959		80.040484		-12.208958		8.541244		-133.152104		30.049244		18.403468		21.500891		-31.366463		-3.862889		-1.042426		39.193487		7.715322		-0.606805		127.434937		-3.451171		29.848538		44.893657		82.221227		-0.860789		-13.114478		-28.514037		130.567714		-2.572062		25.838897		41.445443		94.617026		-11.369750		-8.524335		-16.973992		
2.499571		-0.118786		-32.721327		90.050767		0.005697		1.637783		1.503740		87.431605		-4.749065		10.926410		-135.662001		4.920835		22.141829		31.791226		79.299027		-12.169567		8.550226		-132.968140		29.790904		18.466406		21.838603		-31.130572		-3.700392		-1.058724		38.582228		7.733561		-0.642140		127.294613		-3.388142		29.647646		44.678842		82.926129		-0.661239		-13.397375		-28.528049		130.293590		-2.550178		25.347449		41.403429		95.234422		-11.129822		-8.825315		-16.989561		
2.502172		-0.072480		-32.750602		90.209637		0.005428		1.638270		1.498811		87.059433		-4.842206		10.920578		-135.549953		4.537267		22.156800		31.786519		78.719331		-12.111541		8.514664		-132.756365		29.621494		18.510007		21.890252		-30.667737		-3.598099		-1.106528		38.366608		7.774834		-0.689467		127.111197		-3.389122		29.661608		44.602177		83.034677		-0.629175		-13.378249		-28.529593		130.086158		-2.592410		25.261391		41.331945		95.326613		-11.112826		-8.830322		-16.995952		
2.504773		0.001503		-32.439208		90.381647		0.004893		1.639645		1.493744		86.199652		-5.002575		10.858587		-135.341440		3.377466		22.076145		31.774107		77.823394		-12.016236		8.486392		-132.550029		29.127117		18.577903		22.020208		-30.586925		-3.473295		-1.190943		37.113276		7.907984		-0.713363		126.860100		-3.363393		29.456346		44.516654		83.322859		-0.686622		-13.464830		-28.538918		129.624226		-2.568699		24.731632		41.494761		95.546683		-11.198039		-9.117544		-17.018982		
2.507374		0.109395		-32.057727		90.478784		0.004726		1.640985		1.488381		85.278655		-5.009476		10.736024		-135.125232		2.549624		21.859505		31.758549		76.829824		-12.093191		8.458453		-132.353597		28.606044		18.589516		22.201920		-30.533495		-3.374509		-1.158766		36.094637		7.954416		-0.596361		126.555560		-3.257945		29.221017		44.274511		83.740081		-0.795244		-13.602434		-28.509676		129.108440		-2.469147		24.052399		41.519098		95.881800		-11.262715		-9.477007		-16.998098		
2.509975		0.143603		-32.027866		90.580944		0.004586		1.641306		1.483228		84.918565		-5.052099		10.688873		-135.008501		2.286997		21.804326		31.754928		76.192159		-12.098851		8.453697		-132.155583		28.426136		18.602350		22.239132		-30.103717		-3.293197		-1.144697		35.990972		7.958062		-0.572950		126.318581		-3.224891		29.252925		44.139795		83.851528		-0.799861		-13.605918		-28.486636		128.843055		-2.513336		23.927652		41.361840		95.966193		-11.259965		-9.511994		-16.980527		
2.512576		0.243006		-31.469009		90.721131		0.004154		1.643284		1.477772		83.749794		-5.157733		10.519905		-134.699336		0.836246		21.506053		31.741200		75.020448		-12.064676		8.432901		-131.883844		27.762533		18.654650		22.382669		-30.302470		-3.147296		-1.119615		34.531385		7.990961		-0.508239		125.970968		-3.232662		29.074009		44.084118		84.296728		-0.955456		-13.870492		-28.401278		128.218255		-2.481505		23.215431		41.595452		96.290801		-11.398587		-10.003226		-16.934163		
2.515177		0.271196		-31.330802		90.828557		0.004084		1.643683		1.472378		83.267406		-5.204850		10.419758		-134.563543		0.484839		21.367785		31.737342		74.302697		-12.097601		8.417111		-131.723479		27.513199		18.662838		22.422067		-29.937298		-3.084783		-1.130257		34.355382		7.969495		-0.471041		125.609475		-3.216354		29.146287		43.895293		84.463433		-0.986641		-13.893060		-28.361407		127.805811		-2.502837		23.053166		41.432873		96.401527		-11.433934		-10.071423		-16.914305		
2.517778		0.405508		-30.565729		90.905118		0.003748		1.646051		1.466622		81.872416		-5.247792		10.185027		-134.188284		-1.074166		20.816039		31.722506		72.902081		-12.165139		8.405980		-131.410794		26.635125		18.655045		22.582949		-30.350918		-2.921545		-0.999329		32.661438		7.946382		-0.347922		125.210605		-3.217722		29.028618		43.831738		85.147329		-1.260835		-14.294468		-28.238576		127.032561		-2.470157		22.167321		41.738231		96.865018		-11.750574		-10.672209		-16.889596		
2.520379		0.697631		-29.713041		90.898376		0.003869		1.648081		1.460595		80.441138		-5.003893		9.794124		-133.839241		-2.008893		20.207087		31.694427		71.407177		-12.553623		8.466681		-131.142819		25.863769		18.459836		23.018341		-30.815744		-2.673392		-0.622158		31.725714		7.741062		-0.145313		124.886598		-3.071489		28.935121		43.405381		86.592961		-1.722195		-14.853210		-27.914046		126.355159		-2.336491		21.077716		41.721849		98.058220		-12.056063		-11.232632		-16.716967		
2.522980		1.282025		-28.566216		90.964628		0.004026		1.650491		1.454439		78.661447		-4.580534		9.084232		-133.435550		-2.881335		19.745625		31.620701		69.713479		-13.144329		8.772069		-130.971429		25.313439		18.085203		24.328764		-31.695820		-2.161393		-0.012723		31.531802		7.234844		-0.051078		124.813568		-2.767408		28.646969		42.596140		90.046967		-2.536172		-15.897343		-26.918720		125.882887		-2.086353		19.375401		41.443755		101.333136		-12.172634		-11.801604		-16.035532		
